<mxfile host="app.diagrams.net" modified="2021-02-02T04:02:54.736Z" agent="5.0 (Windows NT 10.0; Win64; x64) AppleWebKit/537.36 (KHTML, like Gecko) Chrome/88.0.4324.104 Safari/537.36" etag="mt-VyqWnXuaEItXm1QCj" version="14.2.6" type="github">
  <diagram id="PMPBR1zb95KHmyKUU88k" name="第 1 页">
    <mxGraphModel dx="1422" dy="762" grid="1" gridSize="10" guides="1" tooltips="1" connect="1" arrows="1" fold="1" page="1" pageScale="1" pageWidth="1100" pageHeight="850" math="0" shadow="0">
      <root>
        <mxCell id="0" />
        <mxCell id="1" parent="0" />
        <mxCell id="0cz5c7G2CwtzE9_tANHb-2" value="" style="strokeWidth=1;shadow=0;dashed=0;align=center;html=1;shape=mxgraph.mockup.graphics.rrect;rSize=0;strokeColor=#999999;" parent="1" vertex="1">
          <mxGeometry x="40" y="200" width="930" height="450" as="geometry" />
        </mxCell>
        <mxCell id="0cz5c7G2CwtzE9_tANHb-3" value="#" style="strokeColor=inherit;fillColor=inherit;gradientColor=inherit;strokeWidth=1;shadow=0;dashed=0;align=center;html=1;shape=mxgraph.mockup.graphics.rrect;rSize=0;fontColor=#666666;" parent="0cz5c7G2CwtzE9_tANHb-2" vertex="1">
          <mxGeometry width="31" height="60" as="geometry" />
        </mxCell>
        <mxCell id="0cz5c7G2CwtzE9_tANHb-4" value="Task" style="strokeColor=inherit;fillColor=inherit;gradientColor=inherit;strokeWidth=1;shadow=0;dashed=0;align=center;html=1;shape=mxgraph.mockup.graphics.rrect;rSize=0;fontColor=#666666;" parent="0cz5c7G2CwtzE9_tANHb-2" vertex="1">
          <mxGeometry x="31" width="109" height="60" as="geometry" />
        </mxCell>
        <mxCell id="0cz5c7G2CwtzE9_tANHb-5" value="Start" style="strokeColor=inherit;fillColor=inherit;gradientColor=inherit;strokeWidth=1;shadow=0;dashed=0;align=center;html=1;shape=mxgraph.mockup.graphics.rrect;rSize=0;fontColor=#666666;" parent="0cz5c7G2CwtzE9_tANHb-2" vertex="1">
          <mxGeometry x="140" width="160" height="60" as="geometry" />
        </mxCell>
        <mxCell id="0cz5c7G2CwtzE9_tANHb-6" value="Effort" style="strokeColor=inherit;fillColor=inherit;gradientColor=inherit;strokeWidth=1;shadow=0;dashed=0;align=center;html=1;shape=mxgraph.mockup.graphics.rrect;rSize=0;fontColor=#666666;" parent="0cz5c7G2CwtzE9_tANHb-2" vertex="1">
          <mxGeometry x="294.5" width="77.5" height="60" as="geometry" />
        </mxCell>
        <mxCell id="0cz5c7G2CwtzE9_tANHb-7" value="20//10//2014" style="strokeColor=inherit;fillColor=inherit;gradientColor=inherit;strokeWidth=1;shadow=0;dashed=0;align=center;html=1;shape=mxgraph.mockup.graphics.rrect;rSize=0;fontColor=#666666;" parent="0cz5c7G2CwtzE9_tANHb-2" vertex="1">
          <mxGeometry x="372" width="325.5" height="30" as="geometry" />
        </mxCell>
        <mxCell id="0cz5c7G2CwtzE9_tANHb-8" value="27//10//2014" style="strokeColor=inherit;fillColor=inherit;gradientColor=inherit;strokeWidth=1;shadow=0;dashed=0;align=center;html=1;shape=mxgraph.mockup.graphics.rrect;rSize=0;fontColor=#666666;" parent="0cz5c7G2CwtzE9_tANHb-2" vertex="1">
          <mxGeometry x="697.5" width="232.5" height="30" as="geometry" />
        </mxCell>
        <mxCell id="0cz5c7G2CwtzE9_tANHb-9" value="M" style="strokeColor=inherit;fillColor=inherit;gradientColor=inherit;strokeWidth=1;shadow=0;dashed=0;align=center;html=1;shape=mxgraph.mockup.graphics.rrect;rSize=0;;fontColor=#666666;" parent="0cz5c7G2CwtzE9_tANHb-2" vertex="1">
          <mxGeometry x="372" y="30" width="46.5" height="30" as="geometry" />
        </mxCell>
        <mxCell id="0cz5c7G2CwtzE9_tANHb-10" value="T" style="strokeColor=inherit;fillColor=inherit;gradientColor=inherit;strokeWidth=1;shadow=0;dashed=0;align=center;html=1;shape=mxgraph.mockup.graphics.rrect;rSize=0;fontColor=#666666;" parent="0cz5c7G2CwtzE9_tANHb-2" vertex="1">
          <mxGeometry x="418.5" y="30" width="46.5" height="30" as="geometry" />
        </mxCell>
        <mxCell id="0cz5c7G2CwtzE9_tANHb-11" value="W" style="strokeColor=inherit;fillColor=inherit;gradientColor=inherit;strokeWidth=1;shadow=0;dashed=0;align=center;html=1;shape=mxgraph.mockup.graphics.rrect;rSize=0;fontColor=#666666;" parent="0cz5c7G2CwtzE9_tANHb-2" vertex="1">
          <mxGeometry x="465" y="30" width="46.5" height="30" as="geometry" />
        </mxCell>
        <mxCell id="0cz5c7G2CwtzE9_tANHb-12" value="T" style="strokeColor=inherit;fillColor=inherit;gradientColor=inherit;strokeWidth=1;shadow=0;dashed=0;align=center;html=1;shape=mxgraph.mockup.graphics.rrect;rSize=0;fontColor=#666666;" parent="0cz5c7G2CwtzE9_tANHb-2" vertex="1">
          <mxGeometry x="511.5" y="30" width="46.5" height="30" as="geometry" />
        </mxCell>
        <mxCell id="0cz5c7G2CwtzE9_tANHb-13" value="F" style="strokeColor=inherit;fillColor=inherit;gradientColor=inherit;strokeWidth=1;shadow=0;dashed=0;align=center;html=1;shape=mxgraph.mockup.graphics.rrect;rSize=0;fontColor=#666666;" parent="0cz5c7G2CwtzE9_tANHb-2" vertex="1">
          <mxGeometry x="558" y="30" width="46.5" height="30" as="geometry" />
        </mxCell>
        <mxCell id="0cz5c7G2CwtzE9_tANHb-14" value="S" style="strokeColor=inherit;fillColor=inherit;gradientColor=inherit;strokeWidth=1;shadow=0;dashed=0;align=center;html=1;shape=mxgraph.mockup.graphics.rrect;rSize=0;fontColor=#666666;" parent="0cz5c7G2CwtzE9_tANHb-2" vertex="1">
          <mxGeometry x="604.5" y="30" width="46.5" height="30" as="geometry" />
        </mxCell>
        <mxCell id="0cz5c7G2CwtzE9_tANHb-15" value="S" style="strokeColor=inherit;fillColor=inherit;gradientColor=inherit;strokeWidth=1;shadow=0;dashed=0;align=center;html=1;shape=mxgraph.mockup.graphics.rrect;rSize=0;fontColor=#666666;" parent="0cz5c7G2CwtzE9_tANHb-2" vertex="1">
          <mxGeometry x="651" y="30" width="46.5" height="30" as="geometry" />
        </mxCell>
        <mxCell id="0cz5c7G2CwtzE9_tANHb-16" value="M" style="strokeColor=inherit;fillColor=inherit;gradientColor=inherit;strokeWidth=1;shadow=0;dashed=0;align=center;html=1;shape=mxgraph.mockup.graphics.rrect;rSize=0;fontColor=#666666;" parent="0cz5c7G2CwtzE9_tANHb-2" vertex="1">
          <mxGeometry x="697.5" y="30" width="46.5" height="30" as="geometry" />
        </mxCell>
        <mxCell id="0cz5c7G2CwtzE9_tANHb-17" value="T" style="strokeColor=inherit;fillColor=inherit;gradientColor=inherit;strokeWidth=1;shadow=0;dashed=0;align=center;html=1;shape=mxgraph.mockup.graphics.rrect;rSize=0;fontColor=#666666;" parent="0cz5c7G2CwtzE9_tANHb-2" vertex="1">
          <mxGeometry x="744" y="30" width="46.5" height="30" as="geometry" />
        </mxCell>
        <mxCell id="0cz5c7G2CwtzE9_tANHb-18" value="W" style="strokeColor=inherit;fillColor=inherit;gradientColor=inherit;strokeWidth=1;shadow=0;dashed=0;align=center;html=1;shape=mxgraph.mockup.graphics.rrect;rSize=0;fontColor=#666666;" parent="0cz5c7G2CwtzE9_tANHb-2" vertex="1">
          <mxGeometry x="790.5" y="30" width="46.5" height="30" as="geometry" />
        </mxCell>
        <mxCell id="0cz5c7G2CwtzE9_tANHb-19" value="T" style="strokeColor=inherit;fillColor=inherit;gradientColor=inherit;strokeWidth=1;shadow=0;dashed=0;align=center;html=1;shape=mxgraph.mockup.graphics.rrect;rSize=0;fontColor=#666666;" parent="0cz5c7G2CwtzE9_tANHb-2" vertex="1">
          <mxGeometry x="837" y="30" width="46.5" height="30" as="geometry" />
        </mxCell>
        <mxCell id="0cz5c7G2CwtzE9_tANHb-20" value="F" style="strokeColor=inherit;fillColor=inherit;gradientColor=inherit;strokeWidth=1;shadow=0;dashed=0;align=center;html=1;shape=mxgraph.mockup.graphics.rrect;rSize=0;fontColor=#666666;" parent="0cz5c7G2CwtzE9_tANHb-2" vertex="1">
          <mxGeometry x="883.5" y="30" width="46.5" height="30" as="geometry" />
        </mxCell>
        <mxCell id="0cz5c7G2CwtzE9_tANHb-21" value="" style="strokeColor=inherit;fillColor=inherit;gradientColor=inherit;strokeWidth=1;shadow=0;dashed=0;align=center;html=1;shape=mxgraph.mockup.graphics.rrect;rSize=0;fontColor=#666666;" parent="0cz5c7G2CwtzE9_tANHb-2" vertex="1">
          <mxGeometry y="60" width="372" height="390" as="geometry" />
        </mxCell>
        <mxCell id="0cz5c7G2CwtzE9_tANHb-22" value="" style="strokeColor=inherit;fillColor=inherit;gradientColor=inherit;strokeWidth=1;shadow=0;dashed=0;align=center;html=1;shape=mxgraph.mockup.graphics.rrect;rSize=0;fontColor=#666666;" parent="0cz5c7G2CwtzE9_tANHb-2" vertex="1">
          <mxGeometry x="372" y="60" width="93" height="390" as="geometry" />
        </mxCell>
        <mxCell id="0cz5c7G2CwtzE9_tANHb-23" value="" style="strokeColor=inherit;fillColor=inherit;gradientColor=inherit;strokeWidth=1;shadow=0;dashed=0;align=center;html=1;shape=mxgraph.mockup.graphics.rrect;rSize=0;fontColor=#666666;" parent="0cz5c7G2CwtzE9_tANHb-2" vertex="1">
          <mxGeometry x="465" y="60" width="93" height="390" as="geometry" />
        </mxCell>
        <mxCell id="0cz5c7G2CwtzE9_tANHb-24" value="" style="strokeColor=inherit;fillColor=inherit;gradientColor=inherit;strokeWidth=1;shadow=0;dashed=0;align=center;html=1;shape=mxgraph.mockup.graphics.rrect;rSize=0;fontColor=#666666;" parent="0cz5c7G2CwtzE9_tANHb-2" vertex="1">
          <mxGeometry x="558" y="60" width="93" height="390" as="geometry" />
        </mxCell>
        <mxCell id="0cz5c7G2CwtzE9_tANHb-25" value="" style="strokeColor=inherit;fillColor=inherit;gradientColor=inherit;strokeWidth=1;shadow=0;dashed=0;align=center;html=1;shape=mxgraph.mockup.graphics.rrect;rSize=0;fontColor=#666666;" parent="0cz5c7G2CwtzE9_tANHb-2" vertex="1">
          <mxGeometry x="651" y="60" width="93" height="390" as="geometry" />
        </mxCell>
        <mxCell id="0cz5c7G2CwtzE9_tANHb-26" value="" style="strokeColor=inherit;fillColor=inherit;gradientColor=inherit;strokeWidth=1;shadow=0;dashed=0;align=center;html=1;shape=mxgraph.mockup.graphics.rrect;rSize=0;fontColor=#666666;" parent="0cz5c7G2CwtzE9_tANHb-2" vertex="1">
          <mxGeometry x="744" y="60" width="93" height="390" as="geometry" />
        </mxCell>
        <mxCell id="0cz5c7G2CwtzE9_tANHb-27" value="" style="strokeColor=inherit;fillColor=inherit;gradientColor=inherit;strokeWidth=1;shadow=0;dashed=0;align=center;html=1;shape=mxgraph.mockup.graphics.rrect;rSize=0;fontColor=#666666;" parent="0cz5c7G2CwtzE9_tANHb-2" vertex="1">
          <mxGeometry x="837" y="60" width="93" height="390" as="geometry" />
        </mxCell>
        <mxCell id="0cz5c7G2CwtzE9_tANHb-28" value="1" style="strokeWidth=1;shadow=0;dashed=0;align=center;html=1;shape=mxgraph.mockup.graphics.anchor;fontColor=#666666;" parent="0cz5c7G2CwtzE9_tANHb-2" vertex="1">
          <mxGeometry y="60" width="31" height="30" as="geometry" />
        </mxCell>
        <mxCell id="0cz5c7G2CwtzE9_tANHb-29" value="Task 1" style="strokeWidth=1;shadow=0;dashed=0;align=center;html=1;shape=mxgraph.mockup.graphics.anchor;fontColor=#666666;" parent="0cz5c7G2CwtzE9_tANHb-2" vertex="1">
          <mxGeometry x="30" y="60" width="110" height="30" as="geometry" />
        </mxCell>
        <mxCell id="0cz5c7G2CwtzE9_tANHb-30" value="20//10//2014 8:00 AM" style="strokeWidth=1;shadow=0;dashed=0;align=center;html=1;shape=mxgraph.mockup.graphics.anchor;fontColor=#666666;" parent="0cz5c7G2CwtzE9_tANHb-2" vertex="1">
          <mxGeometry x="140" y="60" width="154.5" height="30" as="geometry" />
        </mxCell>
        <mxCell id="0cz5c7G2CwtzE9_tANHb-31" value="40h" style="strokeWidth=1;shadow=0;dashed=0;align=center;html=1;shape=mxgraph.mockup.graphics.anchor;fontColor=#666666;" parent="0cz5c7G2CwtzE9_tANHb-2" vertex="1">
          <mxGeometry x="294.5" y="60" width="77.5" height="30" as="geometry" />
        </mxCell>
        <mxCell id="0cz5c7G2CwtzE9_tANHb-32" value="2" style="strokeWidth=1;shadow=0;dashed=0;align=center;html=1;shape=mxgraph.mockup.graphics.anchor;fontColor=#666666;" parent="0cz5c7G2CwtzE9_tANHb-2" vertex="1">
          <mxGeometry y="90" width="31" height="30" as="geometry" />
        </mxCell>
        <mxCell id="0cz5c7G2CwtzE9_tANHb-33" value="Task 2" style="strokeWidth=1;shadow=0;dashed=0;align=center;html=1;shape=mxgraph.mockup.graphics.anchor;fontColor=#666666;" parent="0cz5c7G2CwtzE9_tANHb-2" vertex="1">
          <mxGeometry x="31" y="90" width="109" height="30" as="geometry" />
        </mxCell>
        <mxCell id="0cz5c7G2CwtzE9_tANHb-34" value="20//10//2014 8:00 AM" style="strokeWidth=1;shadow=0;dashed=0;align=center;html=1;shape=mxgraph.mockup.graphics.anchor;fontColor=#666666;" parent="0cz5c7G2CwtzE9_tANHb-2" vertex="1">
          <mxGeometry x="140" y="90" width="154.5" height="30" as="geometry" />
        </mxCell>
        <mxCell id="0cz5c7G2CwtzE9_tANHb-35" value="40h" style="strokeWidth=1;shadow=0;dashed=0;align=center;html=1;shape=mxgraph.mockup.graphics.anchor;fontColor=#666666;" parent="0cz5c7G2CwtzE9_tANHb-2" vertex="1">
          <mxGeometry x="294.5" y="90" width="77.5" height="30" as="geometry" />
        </mxCell>
        <mxCell id="0cz5c7G2CwtzE9_tANHb-36" value="3" style="strokeWidth=1;shadow=0;dashed=0;align=center;html=1;shape=mxgraph.mockup.graphics.anchor;fontColor=#666666;" parent="0cz5c7G2CwtzE9_tANHb-2" vertex="1">
          <mxGeometry y="120" width="31" height="30" as="geometry" />
        </mxCell>
        <mxCell id="0cz5c7G2CwtzE9_tANHb-37" value="Task 3" style="strokeWidth=1;shadow=0;dashed=0;align=center;html=1;shape=mxgraph.mockup.graphics.anchor;fontColor=#666666;" parent="0cz5c7G2CwtzE9_tANHb-2" vertex="1">
          <mxGeometry x="31" y="120" width="109" height="30" as="geometry" />
        </mxCell>
        <mxCell id="0cz5c7G2CwtzE9_tANHb-38" value="20//10//2014 8:00 AM" style="strokeWidth=1;shadow=0;dashed=0;align=center;html=1;shape=mxgraph.mockup.graphics.anchor;fontColor=#666666;" parent="0cz5c7G2CwtzE9_tANHb-2" vertex="1">
          <mxGeometry x="140" y="120" width="154.5" height="30" as="geometry" />
        </mxCell>
        <mxCell id="0cz5c7G2CwtzE9_tANHb-39" value="40h" style="strokeWidth=1;shadow=0;dashed=0;align=center;html=1;shape=mxgraph.mockup.graphics.anchor;fontColor=#666666;" parent="0cz5c7G2CwtzE9_tANHb-2" vertex="1">
          <mxGeometry x="294.5" y="120" width="77.5" height="30" as="geometry" />
        </mxCell>
        <mxCell id="0cz5c7G2CwtzE9_tANHb-40" value="4" style="strokeWidth=1;shadow=0;dashed=0;align=center;html=1;shape=mxgraph.mockup.graphics.anchor;fontColor=#666666;" parent="0cz5c7G2CwtzE9_tANHb-2" vertex="1">
          <mxGeometry y="150" width="31" height="30" as="geometry" />
        </mxCell>
        <mxCell id="0cz5c7G2CwtzE9_tANHb-41" value="Task 4" style="strokeWidth=1;shadow=0;dashed=0;align=center;html=1;shape=mxgraph.mockup.graphics.anchor;fontColor=#666666;" parent="0cz5c7G2CwtzE9_tANHb-2" vertex="1">
          <mxGeometry x="31" y="150" width="109" height="30" as="geometry" />
        </mxCell>
        <mxCell id="0cz5c7G2CwtzE9_tANHb-42" value="20//10//2014 8:00 AM" style="strokeWidth=1;shadow=0;dashed=0;align=center;html=1;shape=mxgraph.mockup.graphics.anchor;fontColor=#666666;" parent="0cz5c7G2CwtzE9_tANHb-2" vertex="1">
          <mxGeometry x="140" y="150" width="154.5" height="30" as="geometry" />
        </mxCell>
        <mxCell id="0cz5c7G2CwtzE9_tANHb-43" value="40h" style="strokeWidth=1;shadow=0;dashed=0;align=center;html=1;shape=mxgraph.mockup.graphics.anchor;fontColor=#666666;" parent="0cz5c7G2CwtzE9_tANHb-2" vertex="1">
          <mxGeometry x="294.5" y="150" width="77.5" height="30" as="geometry" />
        </mxCell>
        <mxCell id="0cz5c7G2CwtzE9_tANHb-44" value="" style="strokeWidth=1;shadow=0;dashed=0;align=center;html=1;shape=mxgraph.mockup.graphics.rrect;rSize=0;strokeColor=none;fillColor=#aaddff;" parent="0cz5c7G2CwtzE9_tANHb-2" vertex="1">
          <mxGeometry x="387.5" y="67.5" width="201.5" height="15" as="geometry" />
        </mxCell>
        <mxCell id="0cz5c7G2CwtzE9_tANHb-45" value="" style="strokeWidth=1;shadow=0;dashed=0;align=center;html=1;shape=mxgraph.mockup.graphics.rrect;rSize=0;strokeColor=none;fillColor=#aaddff;" parent="0cz5c7G2CwtzE9_tANHb-2" vertex="1">
          <mxGeometry x="387.5" y="97.5" width="62" height="15" as="geometry" />
        </mxCell>
        <mxCell id="0cz5c7G2CwtzE9_tANHb-46" value="" style="strokeWidth=1;shadow=0;dashed=0;align=center;html=1;shape=mxgraph.mockup.graphics.rrect;rSize=0;strokeColor=none;fillColor=#aaddff;" parent="0cz5c7G2CwtzE9_tANHb-2" vertex="1">
          <mxGeometry x="434" y="127.5" width="155" height="15" as="geometry" />
        </mxCell>
        <mxCell id="0cz5c7G2CwtzE9_tANHb-47" value="" style="strokeWidth=1;shadow=0;dashed=0;align=center;html=1;shape=mxgraph.mockup.graphics.rrect;rSize=0;strokeColor=none;fillColor=#aaddff;" parent="0cz5c7G2CwtzE9_tANHb-2" vertex="1">
          <mxGeometry x="527" y="157.5" width="108.5" height="15" as="geometry" />
        </mxCell>
      </root>
    </mxGraphModel>
  </diagram>
</mxfile>
